<?xml version="1.0" encoding="UTF-8" standalone="no"?>
<svg
   xmlns:osb="http://www.openswatchbook.org/uri/2009/osb"
   xmlns:dc="http://purl.org/dc/elements/1.1/"
   xmlns:cc="http://creativecommons.org/ns#"
   xmlns:rdf="http://www.w3.org/1999/02/22-rdf-syntax-ns#"
   xmlns:svg="http://www.w3.org/2000/svg"
   xmlns="http://www.w3.org/2000/svg"
   xmlns:sodipodi="http://sodipodi.sourceforge.net/DTD/sodipodi-0.dtd"
   xmlns:inkscape="http://www.inkscape.org/namespaces/inkscape"
   version="1.1"
   viewBox="0 0 512.00003 512.00003"
   id="svg5535"
   sodipodi:docname="logo.svg"
   inkscape:export-filename="/home/jhass/projects/insporation/icon.png"
   inkscape:export-xdpi="283"
   inkscape:export-ydpi="283"
   width="512"
   height="512"
   inkscape:version="0.92.4 5da689c313, 2019-01-14">
  <metadata
     id="metadata5541">
    <rdf:RDF>
      <cc:Work
         rdf:about="">
        <dc:format>image/svg+xml</dc:format>
        <dc:type
           rdf:resource="http://purl.org/dc/dcmitype/StillImage" />
        <dc:title></dc:title>
      </cc:Work>
    </rdf:RDF>
  </metadata>
  <defs
     id="defs5539">
    <linearGradient
       id="linearGradient7008"
       osb:paint="solid">
      <stop
         style="stop-color:#dc7bdc;stop-opacity:0.78039217;"
         offset="0"
         id="stop7006" />
    </linearGradient>
    <meshgradient
       inkscape:collect="always"
       id="meshgradient67456"
       gradientUnits="userSpaceOnUse"
       x="11.616608"
       y="12.39103"
       gradientTransform="matrix(5.7917388,0,0,5.7917388,67.57378,67.3988)">
      <meshrow
         id="meshrow131826">
        <meshpatch
           id="meshpatch131828">
          <stop
             path="c 4.66168,0  9.7167,-4.79829  14.3783,-4.7983"
             style="stop-color:#00ccff;stop-opacity:1"
             id="stop131830" />
          <stop
             path="c -0.000365014,4.45818  5.58456,20.0081  5.58456,24.4658"
             style="stop-color:#02ff02;stop-opacity:1"
             id="stop131832" />
          <stop
             path="c -4.66168,-0.000149041  -16.5599,0.865306  -21.2215,0.865162"
             style="stop-color:#ffffff;stop-opacity:1"
             id="stop131834" />
          <stop
             path="c -0.00139562,-4.45811  1.2572,-16.0745  1.25864,-20.5327"
             style="stop-color:#00ccff;stop-opacity:1"
             id="stop131836" />
        </meshpatch>
        <meshpatch
           id="meshpatch131838">
          <stop
             path="c 4.66136,6.23041e-05  11.6829,2.59581  16.3448,2.5958"
             id="stop131840" />
          <stop
             path="c -0.000116634,4.45818  -3.93318,12.2989  -3.93303,16.757"
             style="stop-color:#02ff02;stop-opacity:1"
             id="stop131842" />
          <stop
             path="c -4.66179,-0.00026002  -2.16537,5.11265  -6.82723,5.11303"
             style="stop-color:#ffffff;stop-opacity:1"
             id="stop131844" />
        </meshpatch>
        <meshpatch
           id="meshpatch131846">
          <stop
             path="c 4.66157,-6.44032e-06  6.57013,2.2025  11.2318,2.2025"
             id="stop131848" />
          <stop
             path="c 0,4.45818  1.17993,7.02846  1.18001,11.4867"
             style="stop-color:#ffff00;stop-opacity:1"
             id="stop131850" />
          <stop
             path="c -4.66178,0.000176108  -11.6829,3.06786  -16.3448,3.06777"
             style="stop-color:#ffce09;stop-opacity:1"
             id="stop131852" />
        </meshpatch>
      </meshrow>
      <meshrow
         id="meshrow131854">
        <meshpatch
           id="meshpatch131856">
          <stop
             path="c 2.02376e-05,4.45825  -3.85437,1.44367  -3.85437,5.90186"
             id="stop131858" />
          <stop
             path="c -4.66163,0.000153866  -10.8176,7.70879  -15.4791,7.70873"
             style="stop-color:#ffffff;stop-opacity:1"
             id="stop131860" />
          <stop
             path="c -0.00101426,-4.45808  -1.88879,-8.28718  -1.88803,-12.7454"
             style="stop-color:#ff2ad4;stop-opacity:1"
             id="stop131862" />
        </meshpatch>
        <meshpatch
           id="meshpatch131864">
          <stop
             path="c 9.46428e-05,4.4579  -2.9104,7.26422  -2.91055,11.7222"
             id="stop131866" />
          <stop
             path="c -8.12275,-4.5623  -3.10918,-0.707936  -7.77105,-0.70734"
             style="stop-color:#ffffff;stop-opacity:1"
             id="stop131868" />
        </meshpatch>
        <meshpatch
           id="meshpatch131870">
          <stop
             path="c -0.000163472,4.45832  -0.000163472,8.91651  0,13.3746"
             id="stop131872" />
          <stop
             path="c -4.66178,0.000176108  -14.5939,1.41599  -19.2554,1.4154"
             style="stop-color:#ffce09;stop-opacity:1"
             id="stop131874" />
        </meshpatch>
      </meshrow>
      <meshrow
         id="meshrow131876">
        <meshpatch
           id="meshpatch131878">
          <stop
             path="c 5.44366e-05,4.45827  -4.87691,12.8495  -4.87656,17.3077"
             id="stop131880" />
          <stop
             path="c -4.66203,-5.52629e-05  -6.57059,-2.75316  -11.2323,-2.75316"
             style="stop-color:#800080;stop-opacity:1"
             id="stop131882" />
          <stop
             path="c 0,-4.45818  0.629286,-2.38758  0.62976,-6.84581"
             style="stop-color:#ff2ad4;stop-opacity:1"
             id="stop131884" />
        </meshpatch>
        <meshpatch
           id="meshpatch131886">
          <stop
             path="c 0.000147344,4.45813  9.3608,12.298  9.36071,16.7567"
             id="stop131888" />
          <stop
             path="c -4.66219,4.10242e-05  -17.3467,-0.157234  -22.0083,-0.15634"
             style="stop-color:#ff0000;stop-opacity:1"
             id="stop131890" />
        </meshpatch>
        <meshpatch
           id="meshpatch131892">
          <stop
             path="c -0.000163472,4.45832  -1.18001,10.8045  -1.18001,15.2624"
             id="stop131894" />
          <stop
             path="c -4.66168,0  -4.0531,2.91044  -8.71465,2.9097"
             style="stop-color:#ff0000;stop-opacity:1"
             id="stop131896" />
        </meshpatch>
      </meshrow>
    </meshgradient>
  </defs>
  <sodipodi:namedview
     pagecolor="#ffffff"
     bordercolor="#666666"
     borderopacity="1"
     objecttolerance="10"
     gridtolerance="10"
     guidetolerance="10"
     inkscape:pageopacity="0"
     inkscape:pageshadow="2"
     inkscape:window-width="1920"
     inkscape:window-height="1016"
     id="namedview5537"
     showgrid="false"
     inkscape:zoom="0.79455256"
     inkscape:cx="-116.03012"
     inkscape:cy="243.22071"
     inkscape:window-x="0"
     inkscape:window-y="27"
     inkscape:window-maximized="1"
     inkscape:current-layer="svg5535" />
  <path
     d="M 230.98189,442.43706 C 190.76348,437.76619 147.1291,415.19041 118.4542,384.21272 71.527218,333.52574 55.770214,260.63439 77.808938,196.19551 100.08686,131.05004 152.62082,85.266347 221.1313,71.273512 c 42.02543,-8.581623 85.79303,-1.599624 125.22897,19.978605 43.5365,23.819093 72.79057,59.371103 88.56147,107.622063 32.24725,98.67965 -24.29113,206.57394 -124.04166,236.70836 -27.18005,8.21152 -50.77906,10.23575 -79.89704,6.85394 z m 2.54333,-99.98278 c 11.61706,-16.20876 21.81342,-29.4701 22.65901,-29.4701 0.84508,0 11.06744,13.29725 22.71578,29.54945 11.64834,16.2522 22.16499,29.29288 23.36908,28.97895 5.21726,-1.35914 47.99673,-34.19094 47.27971,-36.28523 -0.43595,-1.27325 -10.1674,-15.30584 -21.62521,-31.18388 -11.45778,-15.87747 -20.57225,-29.08785 -20.2537,-29.35601 0.31838,-0.26815 16.27188,-5.66692 35.45182,-11.99759 19.1805,-6.33035 34.88016,-12.41284 34.88884,-13.51676 0.0423,-5.35746 -16.85047,-54.62303 -19.01428,-55.45356 -1.36494,-0.52358 -17.32076,3.99357 -35.4576,10.03823 -18.13682,6.04485 -33.61872,10.99098 -34.40524,10.99098 -0.78622,0 -1.66964,-17.01902 -1.9631,-37.82004 l -0.5336,-37.82006 h -60.90591 l -0.5336,37.82006 c -0.29347,20.80102 -1.2052,37.82004 -2.02606,37.82004 -0.82087,0 -17.11112,-5.22437 -36.20069,-11.60953 l -34.70815,-11.60955 -8.94477,26.83835 c -4.9195,14.7614 -8.94476,28.18259 -8.94476,29.82514 0,2.12805 10.02608,6.29561 34.87322,14.4967 19.1805,6.33038 35.13385,11.72944 35.45181,11.99759 0.31837,0.26816 -8.79591,13.47854 -20.25371,29.35601 -11.45779,15.87804 -21.20066,29.91027 -21.65068,31.18388 -0.82028,2.32092 43.34132,36.38776 47.43203,36.5893 1.19732,0.0591 11.68194,-13.15419 23.299,-29.36295 z"
     id="path5531"
     inkscape:connector-curvature="0"
     style="fill:#3e4142;stroke-width:1.96467364" />
  <path
     d="m 204.43835,368.29702 c -13.599,-8.92971 -40.05219,-29.96472 -40.85203,-32.4847 -0.38903,-1.22576 2.61353,-5.75223 19.49153,-29.3838 13.14145,-18.40036 21.87365,-31.03272 21.87365,-31.64433 0,-0.21719 -9.30212,-3.49462 -20.67129,-7.28369 -35.52769,-11.83948 -48.60196,-16.84644 -49.39659,-18.91756 -0.18904,-0.49288 0.55086,-3.97301 1.64416,-7.73428 3.72409,-12.81133 15.6597,-48.72185 16.19312,-48.72185 0.2926,0 15.53402,4.97985 33.8701,11.06628 18.33606,6.08655 34.15388,11.13288 35.15122,11.21396 1.78907,0.14538 1.81872,0.11121 2.21794,-2.55456 0.57053,-3.81004 1.5226,-28.97548 1.52496,-40.30992 7.3e-4,-5.22802 0.16223,-14.65194 0.35818,-20.94177 l 0.35617,-11.43636 h 60.18776 l 0.376,25.80567 c 0.36412,24.99019 1.09086,45.31224 1.7297,48.36854 0.17085,0.81739 0.65076,1.48616 1.06637,1.48616 0.41562,0 9.8199,-2.94573 20.89891,-6.5464 26.18619,-8.5098 36.21978,-11.60549 42.84091,-13.2179 5.05903,-1.23186 5.44777,-1.25704 6.08422,-0.39442 2.61607,3.54581 19.50485,53.49539 18.41309,54.45682 -1.9507,1.71597 -14.433,6.39871 -40.43965,15.17088 -30.6991,10.35505 -29.72378,10.00754 -29.72378,10.58903 0,0.79659 5.50458,8.81503 20.54213,29.9236 7.62309,10.70023 15.52303,21.95359 17.55534,25.00641 l 3.69536,5.55091 -1.57627,1.65176 c -6.43579,6.74389 -42.79284,33.99345 -45.35452,33.99345 -1.29614,0 -7.32483,-7.136 -16.96053,-20.07591 -5.23423,-7.02943 -13.1125,-17.60804 -17.50727,-23.50867 -4.39466,-5.90062 -8.85558,-11.70105 -9.91314,-12.89009 l -1.92291,-2.1617 -1.8924,2.1617 c -2.54362,2.90565 -12.89241,16.60492 -22.04567,29.18341 -12.54606,17.24027 -21.03908,27.8322 -22.31672,27.8322 -0.29892,0 -2.7731,-1.46404 -5.49816,-3.2534 z"
     id="path5533"
     style="fill:url(#meshgradient67456);fill-opacity:1;stroke-width:0.54043293"
     inkscape:connector-curvature="0" />
</svg>
